<mxfile host="app.diagrams.net" agent="Mozilla/5.0 (Windows NT 10.0; Win64; x64) AppleWebKit/537.36 (KHTML, like Gecko) Chrome/134.0.0.0 Safari/537.36" version="26.2.6">
  <diagram name="Page-1" id="CfrW39-j4MLQTGKR7rNT">
    <mxGraphModel dx="4080" dy="2123" grid="1" gridSize="10" guides="1" tooltips="1" connect="1" arrows="1" fold="1" page="1" pageScale="1" pageWidth="850" pageHeight="1100" math="0" shadow="0">
      <root>
        <mxCell id="0" />
        <mxCell id="1" parent="0" />
        <mxCell id="YYocApihuEYUkhm-B56m-3" value="" style="edgeStyle=orthogonalEdgeStyle;rounded=1;orthogonalLoop=1;jettySize=auto;html=1;fontSize=18;" edge="1" parent="1" source="YYocApihuEYUkhm-B56m-1" target="YYocApihuEYUkhm-B56m-2">
          <mxGeometry relative="1" as="geometry" />
        </mxCell>
        <mxCell id="YYocApihuEYUkhm-B56m-1" value="Start" style="strokeWidth=2;html=1;shape=mxgraph.flowchart.start_1;whiteSpace=wrap;fontSize=18;rounded=1;" vertex="1" parent="1">
          <mxGeometry x="375" y="40" width="100" height="60" as="geometry" />
        </mxCell>
        <mxCell id="YYocApihuEYUkhm-B56m-5" value="" style="edgeStyle=orthogonalEdgeStyle;rounded=1;orthogonalLoop=1;jettySize=auto;html=1;fontSize=18;" edge="1" parent="1" source="YYocApihuEYUkhm-B56m-2" target="YYocApihuEYUkhm-B56m-4">
          <mxGeometry relative="1" as="geometry" />
        </mxCell>
        <mxCell id="YYocApihuEYUkhm-B56m-36" value="Yes" style="edgeLabel;html=1;align=center;verticalAlign=middle;resizable=0;points=[];fontSize=18;rounded=1;" vertex="1" connectable="0" parent="YYocApihuEYUkhm-B56m-5">
          <mxGeometry x="-0.886" y="2" relative="1" as="geometry">
            <mxPoint x="10" y="-2" as="offset" />
          </mxGeometry>
        </mxCell>
        <mxCell id="YYocApihuEYUkhm-B56m-13" style="edgeStyle=orthogonalEdgeStyle;rounded=1;orthogonalLoop=1;jettySize=auto;html=1;fontSize=18;" edge="1" parent="1" source="YYocApihuEYUkhm-B56m-2" target="YYocApihuEYUkhm-B56m-12">
          <mxGeometry relative="1" as="geometry" />
        </mxCell>
        <mxCell id="YYocApihuEYUkhm-B56m-37" value="No" style="edgeLabel;html=1;align=center;verticalAlign=middle;resizable=0;points=[];fontSize=18;rounded=1;" vertex="1" connectable="0" parent="YYocApihuEYUkhm-B56m-13">
          <mxGeometry x="-0.1831" y="2" relative="1" as="geometry">
            <mxPoint y="2" as="offset" />
          </mxGeometry>
        </mxCell>
        <mxCell id="YYocApihuEYUkhm-B56m-2" value="Grid list empty?" style="rhombus;whiteSpace=wrap;html=1;strokeWidth=2;fontSize=18;rounded=1;" vertex="1" parent="1">
          <mxGeometry x="343" y="180" width="165" height="130" as="geometry" />
        </mxCell>
        <mxCell id="YYocApihuEYUkhm-B56m-4" value="Return False" style="whiteSpace=wrap;html=1;strokeWidth=2;fontSize=18;rounded=1;" vertex="1" parent="1">
          <mxGeometry x="28" y="1280" width="136" height="40" as="geometry" />
        </mxCell>
        <mxCell id="YYocApihuEYUkhm-B56m-8" value="End" style="strokeWidth=2;html=1;shape=mxgraph.flowchart.start_1;whiteSpace=wrap;fontSize=18;rounded=1;" vertex="1" parent="1">
          <mxGeometry x="46" y="1390" width="100" height="60" as="geometry" />
        </mxCell>
        <mxCell id="YYocApihuEYUkhm-B56m-9" style="edgeStyle=orthogonalEdgeStyle;rounded=1;orthogonalLoop=1;jettySize=auto;html=1;entryX=0.5;entryY=0;entryDx=0;entryDy=0;entryPerimeter=0;fontSize=18;" edge="1" parent="1" source="YYocApihuEYUkhm-B56m-4" target="YYocApihuEYUkhm-B56m-8">
          <mxGeometry relative="1" as="geometry" />
        </mxCell>
        <mxCell id="YYocApihuEYUkhm-B56m-16" value="" style="edgeStyle=orthogonalEdgeStyle;rounded=1;orthogonalLoop=1;jettySize=auto;html=1;fontSize=18;" edge="1" parent="1" source="YYocApihuEYUkhm-B56m-11" target="YYocApihuEYUkhm-B56m-15">
          <mxGeometry relative="1" as="geometry" />
        </mxCell>
        <mxCell id="YYocApihuEYUkhm-B56m-39" value="Yes" style="edgeLabel;html=1;align=center;verticalAlign=middle;resizable=0;points=[];fontSize=18;rounded=1;" vertex="1" connectable="0" parent="YYocApihuEYUkhm-B56m-16">
          <mxGeometry x="-0.4512" relative="1" as="geometry">
            <mxPoint as="offset" />
          </mxGeometry>
        </mxCell>
        <mxCell id="YYocApihuEYUkhm-B56m-31" style="edgeStyle=orthogonalEdgeStyle;rounded=1;orthogonalLoop=1;jettySize=auto;html=1;exitX=0;exitY=0.5;exitDx=0;exitDy=0;exitPerimeter=0;entryX=0.75;entryY=0;entryDx=0;entryDy=0;fontSize=18;" edge="1" parent="1" source="YYocApihuEYUkhm-B56m-11" target="YYocApihuEYUkhm-B56m-4">
          <mxGeometry relative="1" as="geometry">
            <mxPoint x="-180" y="930" as="targetPoint" />
          </mxGeometry>
        </mxCell>
        <mxCell id="YYocApihuEYUkhm-B56m-38" value="No" style="edgeLabel;html=1;align=center;verticalAlign=middle;resizable=0;points=[];fontSize=18;rounded=1;" vertex="1" connectable="0" parent="YYocApihuEYUkhm-B56m-31">
          <mxGeometry x="-0.8808" y="-2" relative="1" as="geometry">
            <mxPoint y="2" as="offset" />
          </mxGeometry>
        </mxCell>
        <mxCell id="YYocApihuEYUkhm-B56m-11" value="Square grid?" style="strokeWidth=2;html=1;shape=mxgraph.flowchart.decision;whiteSpace=wrap;fontSize=18;rounded=1;" vertex="1" parent="1">
          <mxGeometry x="620" y="390" width="170" height="120" as="geometry" />
        </mxCell>
        <mxCell id="YYocApihuEYUkhm-B56m-12" value="Calculate subgrid size" style="rounded=1;whiteSpace=wrap;html=1;absoluteArcSize=1;arcSize=14;strokeWidth=2;fontSize=18;" vertex="1" parent="1">
          <mxGeometry x="605" y="215" width="200" height="60" as="geometry" />
        </mxCell>
        <mxCell id="YYocApihuEYUkhm-B56m-14" style="edgeStyle=orthogonalEdgeStyle;rounded=1;orthogonalLoop=1;jettySize=auto;html=1;entryX=0.5;entryY=0;entryDx=0;entryDy=0;entryPerimeter=0;fontSize=18;" edge="1" parent="1" source="YYocApihuEYUkhm-B56m-12" target="YYocApihuEYUkhm-B56m-11">
          <mxGeometry relative="1" as="geometry" />
        </mxCell>
        <mxCell id="YYocApihuEYUkhm-B56m-18" value="" style="edgeStyle=orthogonalEdgeStyle;rounded=1;orthogonalLoop=1;jettySize=auto;html=1;fontSize=18;" edge="1" parent="1" source="YYocApihuEYUkhm-B56m-15" target="YYocApihuEYUkhm-B56m-17">
          <mxGeometry relative="1" as="geometry" />
        </mxCell>
        <mxCell id="YYocApihuEYUkhm-B56m-15" value="Calculate cells values range" style="whiteSpace=wrap;html=1;strokeWidth=2;fontSize=18;rounded=1;" vertex="1" parent="1">
          <mxGeometry x="610" y="590" width="190" height="60" as="geometry" />
        </mxCell>
        <mxCell id="YYocApihuEYUkhm-B56m-20" value="" style="edgeStyle=orthogonalEdgeStyle;rounded=1;orthogonalLoop=1;jettySize=auto;html=1;fontSize=18;" edge="1" parent="1" source="YYocApihuEYUkhm-B56m-17" target="YYocApihuEYUkhm-B56m-19">
          <mxGeometry relative="1" as="geometry" />
        </mxCell>
        <mxCell id="YYocApihuEYUkhm-B56m-17" value="Loop over rows" style="whiteSpace=wrap;html=1;strokeWidth=2;fontSize=18;rounded=1;" vertex="1" parent="1">
          <mxGeometry x="625" y="730" width="160" height="50" as="geometry" />
        </mxCell>
        <mxCell id="YYocApihuEYUkhm-B56m-27" style="edgeStyle=orthogonalEdgeStyle;rounded=1;orthogonalLoop=1;jettySize=auto;html=1;entryX=0.5;entryY=0;entryDx=0;entryDy=0;fontSize=18;" edge="1" parent="1" source="YYocApihuEYUkhm-B56m-19" target="YYocApihuEYUkhm-B56m-22">
          <mxGeometry relative="1" as="geometry" />
        </mxCell>
        <mxCell id="YYocApihuEYUkhm-B56m-43" value="No" style="edgeLabel;html=1;align=center;verticalAlign=middle;resizable=0;points=[];fontSize=18;rounded=1;" vertex="1" connectable="0" parent="YYocApihuEYUkhm-B56m-27">
          <mxGeometry x="-0.1843" relative="1" as="geometry">
            <mxPoint as="offset" />
          </mxGeometry>
        </mxCell>
        <mxCell id="YYocApihuEYUkhm-B56m-32" style="edgeStyle=orthogonalEdgeStyle;rounded=1;orthogonalLoop=1;jettySize=auto;html=1;entryX=1;entryY=0;entryDx=0;entryDy=0;fontSize=18;" edge="1" parent="1" source="YYocApihuEYUkhm-B56m-19" target="YYocApihuEYUkhm-B56m-4">
          <mxGeometry relative="1" as="geometry" />
        </mxCell>
        <mxCell id="YYocApihuEYUkhm-B56m-40" value="Yes" style="edgeLabel;html=1;align=center;verticalAlign=middle;resizable=0;points=[];fontSize=18;rounded=1;" vertex="1" connectable="0" parent="YYocApihuEYUkhm-B56m-32">
          <mxGeometry x="-0.8721" y="-3" relative="1" as="geometry">
            <mxPoint y="3" as="offset" />
          </mxGeometry>
        </mxCell>
        <mxCell id="YYocApihuEYUkhm-B56m-19" value="Has duplicates&lt;div&gt;or any value&lt;/div&gt;&lt;div&gt;out of range?&lt;/div&gt;" style="rhombus;whiteSpace=wrap;html=1;strokeWidth=2;fontSize=18;rounded=1;" vertex="1" parent="1">
          <mxGeometry x="587.5" y="860" width="235" height="180" as="geometry" />
        </mxCell>
        <mxCell id="YYocApihuEYUkhm-B56m-21" value="" style="edgeStyle=orthogonalEdgeStyle;rounded=1;orthogonalLoop=1;jettySize=auto;html=1;fontSize=18;" edge="1" parent="1" source="YYocApihuEYUkhm-B56m-22" target="YYocApihuEYUkhm-B56m-23">
          <mxGeometry relative="1" as="geometry" />
        </mxCell>
        <mxCell id="YYocApihuEYUkhm-B56m-22" value="Loop over columns" style="whiteSpace=wrap;html=1;strokeWidth=2;fontSize=18;rounded=1;" vertex="1" parent="1">
          <mxGeometry x="615" y="1113" width="180" height="50" as="geometry" />
        </mxCell>
        <mxCell id="YYocApihuEYUkhm-B56m-28" style="edgeStyle=orthogonalEdgeStyle;rounded=1;orthogonalLoop=1;jettySize=auto;html=1;entryX=0.5;entryY=0;entryDx=0;entryDy=0;fontSize=18;" edge="1" parent="1" source="YYocApihuEYUkhm-B56m-23" target="YYocApihuEYUkhm-B56m-25">
          <mxGeometry relative="1" as="geometry" />
        </mxCell>
        <mxCell id="YYocApihuEYUkhm-B56m-44" value="No" style="edgeLabel;html=1;align=center;verticalAlign=middle;resizable=0;points=[];fontSize=18;rounded=1;" vertex="1" connectable="0" parent="YYocApihuEYUkhm-B56m-28">
          <mxGeometry x="-0.1956" y="1" relative="1" as="geometry">
            <mxPoint x="-1" as="offset" />
          </mxGeometry>
        </mxCell>
        <mxCell id="YYocApihuEYUkhm-B56m-33" style="edgeStyle=orthogonalEdgeStyle;rounded=1;orthogonalLoop=1;jettySize=auto;html=1;entryX=1;entryY=0.25;entryDx=0;entryDy=0;fontSize=18;" edge="1" parent="1" source="YYocApihuEYUkhm-B56m-23" target="YYocApihuEYUkhm-B56m-4">
          <mxGeometry relative="1" as="geometry" />
        </mxCell>
        <mxCell id="YYocApihuEYUkhm-B56m-45" value="Yes" style="edgeLabel;html=1;align=center;verticalAlign=middle;resizable=0;points=[];fontSize=18;rounded=1;" vertex="1" connectable="0" parent="YYocApihuEYUkhm-B56m-33">
          <mxGeometry x="-0.7834" y="-3" relative="1" as="geometry">
            <mxPoint y="3" as="offset" />
          </mxGeometry>
        </mxCell>
        <mxCell id="YYocApihuEYUkhm-B56m-23" value="Has duplicates&lt;div&gt;and all values&lt;/div&gt;&lt;div&gt;in the range?&lt;/div&gt;" style="rhombus;whiteSpace=wrap;html=1;strokeWidth=2;fontSize=18;rounded=1;" vertex="1" parent="1">
          <mxGeometry x="597.5" y="1215" width="215" height="150" as="geometry" />
        </mxCell>
        <mxCell id="YYocApihuEYUkhm-B56m-24" value="" style="edgeStyle=orthogonalEdgeStyle;rounded=1;orthogonalLoop=1;jettySize=auto;html=1;fontSize=18;" edge="1" parent="1" source="YYocApihuEYUkhm-B56m-25" target="YYocApihuEYUkhm-B56m-26">
          <mxGeometry relative="1" as="geometry" />
        </mxCell>
        <mxCell id="YYocApihuEYUkhm-B56m-25" value="Loop over subgrids" style="whiteSpace=wrap;html=1;strokeWidth=2;fontSize=18;rounded=1;" vertex="1" parent="1">
          <mxGeometry x="615" y="1477" width="180" height="50" as="geometry" />
        </mxCell>
        <mxCell id="YYocApihuEYUkhm-B56m-30" value="" style="edgeStyle=orthogonalEdgeStyle;rounded=1;orthogonalLoop=1;jettySize=auto;html=1;fontSize=18;" edge="1" parent="1" source="YYocApihuEYUkhm-B56m-26" target="YYocApihuEYUkhm-B56m-29">
          <mxGeometry relative="1" as="geometry" />
        </mxCell>
        <mxCell id="YYocApihuEYUkhm-B56m-42" value="No" style="edgeLabel;html=1;align=center;verticalAlign=middle;resizable=0;points=[];fontSize=18;rounded=1;" vertex="1" connectable="0" parent="YYocApihuEYUkhm-B56m-30">
          <mxGeometry x="-0.4906" relative="1" as="geometry">
            <mxPoint as="offset" />
          </mxGeometry>
        </mxCell>
        <mxCell id="YYocApihuEYUkhm-B56m-34" style="edgeStyle=orthogonalEdgeStyle;rounded=1;orthogonalLoop=1;jettySize=auto;html=1;entryX=1;entryY=0.75;entryDx=0;entryDy=0;fontSize=18;" edge="1" parent="1" source="YYocApihuEYUkhm-B56m-26" target="YYocApihuEYUkhm-B56m-4">
          <mxGeometry relative="1" as="geometry" />
        </mxCell>
        <mxCell id="YYocApihuEYUkhm-B56m-41" value="Yes" style="edgeLabel;html=1;align=center;verticalAlign=middle;resizable=0;points=[];fontSize=18;rounded=1;" vertex="1" connectable="0" parent="YYocApihuEYUkhm-B56m-34">
          <mxGeometry x="-0.898" y="-1" relative="1" as="geometry">
            <mxPoint y="1" as="offset" />
          </mxGeometry>
        </mxCell>
        <mxCell id="YYocApihuEYUkhm-B56m-26" value="Has duplicates&lt;div&gt;or any value&lt;/div&gt;&lt;div&gt;out of range?&lt;/div&gt;" style="rhombus;whiteSpace=wrap;html=1;strokeWidth=2;fontSize=18;rounded=1;" vertex="1" parent="1">
          <mxGeometry x="602.5" y="1611" width="205" height="170" as="geometry" />
        </mxCell>
        <mxCell id="YYocApihuEYUkhm-B56m-29" value="Return True" style="whiteSpace=wrap;html=1;strokeWidth=2;fontSize=18;rounded=1;" vertex="1" parent="1">
          <mxGeometry x="635" y="1910" width="140" height="45" as="geometry" />
        </mxCell>
        <mxCell id="YYocApihuEYUkhm-B56m-35" style="edgeStyle=orthogonalEdgeStyle;rounded=1;orthogonalLoop=1;jettySize=auto;html=1;entryX=0.5;entryY=1;entryDx=0;entryDy=0;entryPerimeter=0;fontSize=18;" edge="1" parent="1" source="YYocApihuEYUkhm-B56m-29" target="YYocApihuEYUkhm-B56m-8">
          <mxGeometry relative="1" as="geometry" />
        </mxCell>
      </root>
    </mxGraphModel>
  </diagram>
</mxfile>
